# Blender v2.72 (sub 0) OBJ File: 'cylender.blend'
# www.blender.org
o Cylinder
v 0.000000 0.000000 -1.000000
v 0.000000 2.000000 -1.000000
v 0.195090 0.000000 -0.980785
v 0.195090 2.000000 -0.980785
v 0.382683 0.000000 -0.923880
v 0.382683 2.000000 -0.923880
v 0.555570 0.000000 -0.831470
v 0.555570 2.000000 -0.831470
v 0.707107 0.000000 -0.707107
v 0.707107 2.000000 -0.707107
v 0.831470 0.000000 -0.555570
v 0.831470 2.000000 -0.555570
v 0.923880 0.000000 -0.382683
v 0.923880 2.000000 -0.382683
v 0.980785 0.000000 -0.195090
v 0.980785 2.000000 -0.195090
v 1.000000 0.000000 -0.000000
v 1.000000 2.000000 -0.000000
v 0.980785 0.000000 0.195090
v 0.980785 2.000000 0.195090
v 0.923880 0.000000 0.382683
v 0.923880 2.000000 0.382683
v 0.831470 0.000000 0.555570
v 0.831470 2.000000 0.555570
v 0.707107 0.000000 0.707107
v 0.707107 2.000000 0.707107
v 0.555570 0.000000 0.831470
v 0.555570 2.000000 0.831470
v 0.382683 0.000000 0.923880
v 0.382683 2.000000 0.923880
v 0.195090 0.000000 0.980785
v 0.195090 2.000000 0.980785
v -0.000000 0.000000 1.000000
v -0.000000 2.000000 1.000000
v -0.195091 0.000000 0.980785
v -0.195091 2.000000 0.980785
v -0.382684 0.000000 0.923879
v -0.382684 2.000000 0.923879
v -0.555571 0.000000 0.831469
v -0.555571 2.000000 0.831469
v -0.707107 0.000000 0.707106
v -0.707107 2.000000 0.707106
v -0.831470 0.000000 0.555570
v -0.831470 2.000000 0.555570
v -0.923880 0.000000 0.382683
v -0.923880 2.000000 0.382683
v -0.980785 0.000000 0.195089
v -0.980785 2.000000 0.195089
v -1.000000 0.000000 -0.000001
v -1.000000 2.000000 -0.000001
v -0.980785 0.000000 -0.195091
v -0.980785 2.000000 -0.195091
v -0.923879 0.000000 -0.382684
v -0.923879 2.000000 -0.382684
v -0.831469 0.000000 -0.555571
v -0.831469 2.000000 -0.555571
v -0.707106 0.000000 -0.707108
v -0.707106 2.000000 -0.707108
v -0.555569 0.000000 -0.831470
v -0.555569 2.000000 -0.831470
v -0.382682 0.000000 -0.923880
v -0.382682 2.000000 -0.923880
v -0.195089 0.000000 -0.980786
v -0.195089 2.000000 -0.980786
v 0.000000 1.000000 -1.000000
v 0.195090 1.000000 -0.980785
v 0.382683 1.000000 -0.923880
v 0.555570 1.000000 -0.831470
v 0.707107 1.000000 -0.707107
v 0.831470 1.000000 -0.555570
v 0.923880 1.000000 -0.382683
v 0.980785 1.000000 -0.195090
v 1.000000 1.000000 -0.000000
v 0.980785 1.000000 0.195090
v 0.923880 1.000000 0.382683
v 0.831470 1.000000 0.555570
v 0.707107 1.000000 0.707107
v 0.555570 1.000000 0.831470
v 0.382683 1.000000 0.923880
v 0.195090 1.000000 0.980785
v -0.000000 1.000000 1.000000
v -0.195091 1.000000 0.980785
v -0.382684 1.000000 0.923879
v -0.555571 1.000000 0.831469
v -0.707107 1.000000 0.707106
v -0.831470 1.000000 0.555570
v -0.923880 1.000000 0.382683
v -0.980785 1.000000 0.195089
v -1.000000 1.000000 -0.000001
v -0.980785 1.000000 -0.195091
v -0.923879 1.000000 -0.382684
v -0.831469 1.000000 -0.555571
v -0.707106 1.000000 -0.707108
v -0.555569 1.000000 -0.831470
v -0.382682 1.000000 -0.923880
v -0.195089 1.000000 -0.980786
v 0.000000 1.500000 -1.000000
v 0.195090 1.500000 -0.980785
v 0.382683 1.500000 -0.923880
v 0.555570 1.500000 -0.831470
v 0.707107 1.500000 -0.707107
v 0.831470 1.500000 -0.555570
v 0.923880 1.500000 -0.382683
v 0.980785 1.500000 -0.195090
v 1.000000 1.500000 -0.000000
v 0.980785 1.500000 0.195090
v 0.923880 1.500000 0.382683
v 0.831470 1.500000 0.555570
v 0.707107 1.500000 0.707107
v 0.555570 1.500000 0.831470
v 0.382683 1.500000 0.923880
v 0.195090 1.500000 0.980785
v -0.000000 1.500000 1.000000
v -0.195091 1.500000 0.980785
v -0.382684 1.500000 0.923879
v -0.555571 1.500000 0.831469
v -0.707107 1.500000 0.707106
v -0.831470 1.500000 0.555570
v -0.923880 1.500000 0.382683
v -0.980785 1.500000 0.195089
v -1.000000 1.500000 -0.000001
v -0.980785 1.500000 -0.195091
v -0.923879 1.500000 -0.382684
v -0.831469 1.500000 -0.555571
v -0.707106 1.500000 -0.707108
v -0.555569 1.500000 -0.831470
v -0.382682 1.500000 -0.923880
v -0.195089 1.500000 -0.980786
v 0.195090 0.500000 -0.980785
v 0.382683 0.500000 -0.923880
v 0.555570 0.500000 -0.831470
v 0.707107 0.500000 -0.707107
v 0.831470 0.500000 -0.555570
v 0.923880 0.500000 -0.382683
v 0.980785 0.500000 -0.195090
v 1.000000 0.500000 -0.000000
v 0.980785 0.500000 0.195090
v 0.923880 0.500000 0.382683
v 0.831470 0.500000 0.555570
v 0.707107 0.500000 0.707107
v 0.555570 0.500000 0.831470
v 0.382683 0.500000 0.923880
v 0.195090 0.500000 0.980785
v -0.000000 0.500000 1.000000
v -0.195091 0.500000 0.980785
v -0.382684 0.500000 0.923879
v -0.555571 0.500000 0.831469
v -0.707107 0.500000 0.707106
v -0.831470 0.500000 0.555570
v -0.923880 0.500000 0.382683
v -0.980785 0.500000 0.195089
v -1.000000 0.500000 -0.000001
v -0.980785 0.500000 -0.195091
v -0.923879 0.500000 -0.382684
v -0.831469 0.500000 -0.555571
v -0.707106 0.500000 -0.707108
v -0.555569 0.500000 -0.831470
v -0.382682 0.500000 -0.923880
v -0.195089 0.500000 -0.980786
v 0.000000 0.500000 -1.000000
vt 0.263292 0.842804
vt 0.280738 0.839562
vt 0.297201 0.896970
vt 0.297080 0.832943
vt 0.324316 0.885913
vt 0.311733 0.823228
vt 0.348760 0.869797
vt 0.324151 0.810803
vt 0.369593 0.849208
vt 0.333862 0.796153
vt 0.386005 0.824915
vt 0.340493 0.779850
vt 0.397349 0.797838
vt 0.343784 0.762525
vt 0.403169 0.769015
vt 0.343602 0.744852
vt 0.403220 0.739559
vt 0.339947 0.727518
vt 0.397481 0.710614
vt 0.332953 0.711198
vt 0.386159 0.683311
vt 0.322883 0.696529
vt 0.369683 0.658719
vt 0.310123 0.684086
vt 0.348683 0.637803
vt 0.295162 0.674355
vt 0.323972 0.621386
vt 0.278577 0.667716
vt 0.296509 0.610111
vt 0.261010 0.664430
vt 0.267362 0.604423
vt 0.243139 0.664625
vt 0.237665 0.604544
vt 0.225656 0.668292
vt 0.209236 0.675286
vt 0.181225 0.621958
vt 0.194515 0.685332
vt 0.156674 0.638563
vt 0.182057 0.698037
vt 0.135875 0.659626
vt 0.172341 0.712903
vt 0.119629 0.684321
vt 0.165738 0.729348
vt 0.108556 0.711678
vt 0.162497 0.746731
vt 0.103074 0.740626
vt 0.162737 0.764375
vt 0.103378 0.770038
vt 0.166445 0.781594
vt 0.173477 0.797718
vt 0.121002 0.825727
vt 0.183563 0.812120
vt 0.137606 0.849869
vt 0.196324 0.824232
vt 0.158597 0.870291
vt 0.211287 0.833575
vt 0.183163 0.886237
vt 0.227890 0.839755
vt 0.210360 0.897137
vt 0.245440 0.842486
vt 0.268455 0.902602
vt 0.239151 0.902637
vt 0.309898 0.321134
vt 0.279626 0.166337
vt 0.343261 0.259735
vt 0.372772 0.031536
vt 0.413577 0.059076
vt 0.348840 0.136320
vt 0.448156 0.094041
vt 0.369605 0.157012
vt 0.475185 0.135068
vt 0.385878 0.181375
vt 0.493643 0.180558
vt 0.397038 0.208467
vt 0.502848 0.228745
vt 0.402664 0.237244
vt 0.502486 0.277775
vt 0.402545 0.266602
vt 0.492615 0.325783
vt 0.396695 0.295417
vt 0.473650 0.370966
vt 0.385348 0.322599
vt 0.446336 0.411649
vt 0.368953 0.347123
vt 0.411702 0.446331
vt 0.348162 0.368083
vt 0.371022 0.473714
vt 0.323772 0.384694
vt 0.325797 0.492733
vt 0.296691 0.396282
vt 0.277716 0.502621
vt 0.267937 0.402381
vt 0.228601 0.502952
vt 0.238592 0.402740
vt 0.180336 0.493673
vt 0.209768 0.397333
vt 0.134786 0.475107
vt 0.182569 0.386359
vt 0.093722 0.447947
vt 0.058745 0.413227
vt 0.137143 0.349575
vt 0.031224 0.372277
vt 0.120676 0.325175
vt 0.012245 0.326678
vt 0.109294 0.297976
vt 0.002561 0.278195
vt 0.103450 0.269032
vt 0.002561 0.228714
vt 0.103380 0.239463
vt 0.012254 0.180159
vt 0.109094 0.210418
vt 0.031268 0.134418
vt 0.120375 0.183023
vt 0.058865 0.093271
vt 0.093970 0.058313
vt 0.157702 0.137321
vt 0.135215 0.030895
vt 0.182303 0.120781
vt 0.180995 0.012073
vt 0.209637 0.109353
vt 0.229530 0.002561
vt 0.238644 0.103470
vt 0.278938 0.002710
vt 0.268199 0.103346
vt 0.327309 0.012499
vt 0.324379 0.120098
vt 0.297154 0.108968
vt 0.325040 0.993153
vt 0.370214 0.974937
vt 0.411107 0.948303
vt 0.446138 0.914170
vt 0.473916 0.873768
vt 0.493304 0.828607
vt 0.503490 0.780410
vt 0.504017 0.731047
vt 0.494819 0.682450
vt 0.476221 0.636532
vt 0.448924 0.595108
vt 0.413983 0.559817
vt 0.372759 0.532053
vt 0.326863 0.512913
vt 0.278092 0.503153
vt 0.228357 0.503153
vt 0.208576 0.610468
vt 0.133742 0.532031
vt 0.092558 0.559758
vt 0.057655 0.594993
vt 0.030383 0.636339
vt 0.011786 0.682166
vt 0.002561 0.730670
vt 0.003030 0.779950
vt 0.109438 0.798774
vt 0.032408 0.873224
vt 0.060070 0.913644
vt 0.094993 0.947842
vt 0.135799 0.974578
vt 0.180915 0.992926
vt 0.277274 1.002361
vt 0.228652 1.002283
vt 0.310752 0.182076
vt 0.323285 0.194267
vt 0.333126 0.208723
vt 0.339891 0.224878
vt 0.343316 0.242104
vt 0.339715 0.277094
vt 0.332795 0.293518
vt 0.322740 0.308385
vt 0.295290 0.331617
vt 0.279062 0.338972
vt 0.261907 0.342985
vt 0.244381 0.343474
vt 0.227145 0.340433
vt 0.210857 0.334001
vt 0.158044 0.370233
vt 0.183634 0.312097
vt 0.173698 0.297487
vt 0.166809 0.281171
vt 0.163240 0.263781
vt 0.163136 0.245988
vt 0.166506 0.228480
vt 0.173226 0.211935
vt 0.136789 0.158339
vt 0.195572 0.184225
vt 0.210342 0.174127
vt 0.226781 0.167085
vt 0.244259 0.163368
vt 0.262104 0.163115
vt 0.296007 0.172636
vt 0.183040 0.196991
vt 0.196162 0.324432
vt 0.179605 0.512909
vt 0.013127 0.828086
vn 0.000000 0.685700 -0.727900
vn 0.142000 0.685700 -0.713900
vn 0.195100 0.000000 -0.980800
vn 0.278500 0.685700 -0.672500
vn 0.382700 0.000000 -0.923900
vn 0.404400 0.685700 -0.605200
vn 0.555600 0.000000 -0.831400
vn 0.514700 0.685700 -0.514700
vn 0.707100 0.000000 -0.707100
vn 0.605200 0.685700 -0.404400
vn 0.831400 0.000000 -0.555600
vn 0.672500 0.685700 -0.278500
vn 0.923900 0.000000 -0.382700
vn 0.713900 0.685700 -0.142000
vn 0.980800 0.000000 -0.195100
vn 0.727900 0.685700 0.000000
vn 1.000000 0.000000 0.000000
vn 0.713900 0.685700 0.142000
vn 0.980800 0.000000 0.195100
vn 0.672500 0.685700 0.278500
vn 0.923900 0.000000 0.382700
vn 0.605200 0.685700 0.404400
vn 0.831400 0.000000 0.555600
vn 0.514700 0.685700 0.514700
vn 0.707100 0.000000 0.707100
vn 0.404400 0.685700 0.605200
vn 0.555600 0.000000 0.831400
vn 0.278500 0.685700 0.672500
vn 0.382700 0.000000 0.923900
vn 0.142000 0.685700 0.713900
vn 0.195100 0.000000 0.980800
vn 0.000000 0.685700 0.727900
vn 0.000000 0.000000 1.000000
vn -0.142000 0.685700 0.713900
vn -0.278500 0.685700 0.672500
vn -0.382700 0.000000 0.923900
vn -0.404400 0.685700 0.605200
vn -0.555600 0.000000 0.831400
vn -0.514700 0.685700 0.514700
vn -0.707100 0.000000 0.707100
vn -0.605200 0.685700 0.404400
vn -0.831400 0.000000 0.555600
vn -0.672500 0.685700 0.278500
vn -0.923900 0.000000 0.382700
vn -0.713900 0.685700 0.142000
vn -0.980800 0.000000 0.195100
vn -0.727900 0.685700 0.000000
vn -1.000000 0.000000 0.000000
vn -0.713900 0.685700 -0.142000
vn -0.672500 0.685700 -0.278500
vn -0.923900 0.000000 -0.382700
vn -0.605200 0.685700 -0.404400
vn -0.831400 0.000000 -0.555600
vn -0.514700 0.685700 -0.514700
vn -0.707100 0.000000 -0.707100
vn -0.404400 0.685700 -0.605200
vn -0.555600 0.000000 -0.831400
vn -0.278500 0.685700 -0.672500
vn -0.382700 0.000000 -0.923900
vn -0.142000 0.685700 -0.713900
vn 0.000000 0.000000 -1.000000
vn -0.195100 0.000000 -0.980800
vn 0.672500 -0.685700 0.278500
vn -0.142000 -0.685700 -0.713900
vn 0.672500 -0.685700 -0.278500
vn -0.195100 0.000000 0.980800
vn -0.980800 0.000000 -0.195100
vn 0.142000 -0.685700 -0.713900
vn 0.278500 -0.685700 -0.672500
vn 0.404400 -0.685700 -0.605200
vn 0.514700 -0.685700 -0.514700
vn 0.605200 -0.685700 -0.404400
vn 0.713900 -0.685700 -0.142000
vn 0.727900 -0.685700 0.000000
vn 0.713900 -0.685700 0.142000
vn 0.605200 -0.685700 0.404400
vn 0.514700 -0.685700 0.514700
vn 0.404400 -0.685700 0.605200
vn 0.278500 -0.685700 0.672500
vn 0.142000 -0.685700 0.713900
vn 0.000000 -0.685700 0.727900
vn -0.278500 -0.685700 0.672500
vn -0.404400 -0.685700 0.605200
vn -0.514700 -0.685700 0.514700
vn -0.605200 -0.685700 0.404400
vn -0.672500 -0.685700 0.278500
vn -0.713900 -0.685700 0.142000
vn -0.727900 -0.685700 0.000000
vn -0.672500 -0.685700 -0.278500
vn -0.605200 -0.685700 -0.404400
vn -0.514700 -0.685700 -0.514700
vn -0.404400 -0.685700 -0.605200
vn -0.278500 -0.685700 -0.672500
vn 0.000000 -0.685700 -0.727900
vn -0.713900 -0.685700 -0.142000
vn -0.142000 -0.685700 0.713900
s 1
f 2/1/1 4/2/2 98/3/3
f 4/2/2 6/4/4 99/5/5
f 6/4/4 8/6/6 100/7/7
f 8/6/6 10/8/8 101/9/9
f 10/8/8 12/10/10 102/11/11
f 12/10/10 14/12/12 103/13/13
f 14/12/12 16/14/14 104/15/15
f 16/14/14 18/16/16 105/17/17
f 18/16/16 20/18/18 106/19/19
f 20/18/18 22/20/20 107/21/21
f 22/20/20 24/22/22 108/23/23
f 24/22/22 26/24/24 109/25/25
f 26/24/24 28/26/26 110/27/27
f 28/26/26 30/28/28 111/29/29
f 30/28/28 32/30/30 112/31/31
f 32/30/30 34/32/32 113/33/33
f 113/33/33 34/32/32 36/34/34
f 36/34/34 38/35/35 115/36/36
f 38/35/35 40/37/37 116/38/38
f 40/37/37 42/39/39 117/40/40
f 42/39/39 44/41/41 118/42/42
f 44/41/41 46/43/43 119/44/44
f 46/43/43 48/45/45 120/46/46
f 48/45/45 50/47/47 121/48/48
f 121/48/48 50/47/47 52/49/49
f 52/49/49 54/50/50 123/51/51
f 54/50/50 56/52/52 124/53/53
f 56/52/52 58/54/54 125/55/55
f 58/54/54 60/56/56 126/57/57
f 60/56/56 62/58/58 127/59/59
f 6/4/4 4/2/2 36/34/34
f 64/60/60 2/1/1 97/61/61
f 62/58/58 64/60/60 128/62/62
f 21/63/63 63/64/64 13/65/65
f 65/66/61 66/67/3 129/68/3
f 66/67/3 67/69/5 130/70/5
f 67/69/5 68/71/7 131/72/7
f 68/71/7 69/73/9 132/74/9
f 69/73/9 70/75/11 133/76/11
f 70/75/11 71/77/13 134/78/13
f 71/77/13 72/79/15 135/80/15
f 72/79/15 73/81/17 136/82/17
f 73/81/17 74/83/19 137/84/19
f 74/83/19 75/85/21 138/86/21
f 75/85/21 76/87/23 139/88/23
f 76/87/23 77/89/25 140/90/25
f 77/89/25 78/91/27 141/92/27
f 78/91/27 79/93/29 142/94/29
f 79/93/29 80/95/31 143/96/31
f 80/95/31 81/97/33 144/98/33
f 144/98/33 81/97/33 82/99/66
f 82/99/66 83/100/36 146/101/36
f 83/100/36 84/102/38 147/103/38
f 84/102/38 85/104/40 148/105/40
f 85/104/40 86/106/42 149/107/42
f 86/106/42 87/108/44 150/109/44
f 87/108/44 88/110/46 151/111/46
f 88/110/46 89/112/48 152/113/48
f 152/113/48 89/112/48 90/114/67
f 90/114/67 91/115/51 154/116/51
f 91/115/51 92/117/53 155/118/53
f 92/117/53 93/119/55 156/120/55
f 93/119/55 94/121/57 157/122/57
f 94/121/57 95/123/59 158/124/59
f 96/125/62 65/66/61 160/126/61
f 95/123/59 96/125/62 159/127/62
f 97/61/61 98/3/3 66/128/3
f 98/3/3 99/5/5 67/129/5
f 99/5/5 100/7/7 68/130/7
f 100/7/7 101/9/9 69/131/9
f 101/9/9 102/11/11 70/132/11
f 102/11/11 103/13/13 71/133/13
f 103/13/13 104/15/15 72/134/15
f 104/15/15 105/17/17 73/135/17
f 105/17/17 106/19/19 74/136/19
f 106/19/19 107/21/21 75/137/21
f 107/21/21 108/23/23 76/138/23
f 108/23/23 109/25/25 77/139/25
f 109/25/25 110/27/27 78/140/27
f 110/27/27 111/29/29 79/141/29
f 111/29/29 112/31/31 80/142/31
f 112/31/31 113/33/33 81/143/33
f 81/143/33 113/33/33 114/144/66
f 114/144/66 115/36/36 83/145/36
f 115/36/36 116/38/38 84/146/38
f 116/38/38 117/40/40 85/147/40
f 117/40/40 118/42/42 86/148/42
f 118/42/42 119/44/44 87/149/44
f 119/44/44 120/46/46 88/150/46
f 120/46/46 121/48/48 89/151/48
f 89/151/48 121/48/48 122/152/67
f 122/152/67 123/51/51 91/153/51
f 123/51/51 124/53/53 92/154/53
f 124/53/53 125/55/55 93/155/55
f 125/55/55 126/57/57 94/156/57
f 126/57/57 127/59/59 95/157/59
f 128/62/62 97/61/61 65/158/61
f 127/59/59 128/62/62 96/159/62
f 160/126/61 129/68/3 3/160/68
f 129/68/3 130/70/5 5/161/69
f 130/70/5 131/72/7 7/162/70
f 131/72/7 132/74/9 9/163/71
f 132/74/9 133/76/11 11/164/72
f 133/76/11 134/78/13 13/65/65
f 134/78/13 135/80/15 15/165/73
f 135/80/15 136/82/17 17/166/74
f 136/82/17 137/84/19 19/167/75
f 137/84/19 138/86/21 21/63/63
f 138/86/21 139/88/23 23/168/76
f 139/88/23 140/90/25 25/169/77
f 140/90/25 141/92/27 27/170/78
f 141/92/27 142/94/29 29/171/79
f 142/94/29 143/96/31 31/172/80
f 143/96/31 144/98/33 33/173/81
f 33/173/81 144/98/33 145/174/66
f 145/174/66 146/101/36 37/175/82
f 146/101/36 147/103/38 39/176/83
f 147/103/38 148/105/40 41/177/84
f 148/105/40 149/107/42 43/178/85
f 149/107/42 150/109/44 45/179/86
f 150/109/44 151/111/46 47/180/87
f 151/111/46 152/113/48 49/181/88
f 49/181/88 152/113/48 153/182/67
f 153/182/67 154/116/51 53/183/89
f 154/116/51 155/118/53 55/184/90
f 155/118/53 156/120/55 57/185/91
f 156/120/55 157/122/57 59/186/92
f 157/122/57 158/124/59 61/187/93
f 159/127/62 160/126/61 1/188/94
f 158/124/59 159/127/62 63/64/64
f 97/61/61 2/1/1 98/3/3
f 98/3/3 4/2/2 99/5/5
f 99/5/5 6/4/4 100/7/7
f 100/7/7 8/6/6 101/9/9
f 101/9/9 10/8/8 102/11/11
f 102/11/11 12/10/10 103/13/13
f 103/13/13 14/12/12 104/15/15
f 104/15/15 16/14/14 105/17/17
f 105/17/17 18/16/16 106/19/19
f 106/19/19 20/18/18 107/21/21
f 107/21/21 22/20/20 108/23/23
f 108/23/23 24/22/22 109/25/25
f 109/25/25 26/24/24 110/27/27
f 110/27/27 28/26/26 111/29/29
f 111/29/29 30/28/28 112/31/31
f 112/31/31 32/30/30 113/33/33
f 114/144/66 113/33/33 36/34/34
f 114/144/66 36/34/34 115/36/36
f 115/36/36 38/35/35 116/38/38
f 116/38/38 40/37/37 117/40/40
f 117/40/40 42/39/39 118/42/42
f 118/42/42 44/41/41 119/44/44
f 119/44/44 46/43/43 120/46/46
f 120/46/46 48/45/45 121/48/48
f 122/152/67 121/48/48 52/49/49
f 122/152/67 52/49/49 123/51/51
f 123/51/51 54/50/50 124/53/53
f 124/53/53 56/52/52 125/55/55
f 125/55/55 58/54/54 126/57/57
f 126/57/57 60/56/56 127/59/59
f 128/62/62 64/60/60 97/61/61
f 8/6/6 6/4/4 10/8/8
f 12/10/10 10/8/8 14/12/12
f 20/18/18 18/16/16 16/14/14
f 20/18/18 28/26/26 22/20/20
f 24/22/22 22/20/20 26/24/24
f 32/30/30 30/28/28 28/26/26
f 36/34/34 34/32/32 32/30/30
f 38/35/35 48/45/45 44/41/41
f 40/37/37 38/35/35 42/39/39
f 48/45/45 46/43/43 44/41/41
f 52/49/49 50/47/47 48/45/45
f 52/49/49 36/34/34 54/50/50
f 56/52/52 54/50/50 58/54/54
f 64/60/60 62/58/58 60/56/56
f 4/2/2 2/1/1 64/60/60
f 10/8/8 6/4/4 36/34/34
f 38/35/35 44/41/41 42/39/39
f 58/54/54 54/50/50 60/56/56
f 36/34/34 32/30/30 28/26/26
f 38/35/35 36/34/34 52/49/49
f 22/20/20 28/26/26 26/24/24
f 48/45/45 38/35/35 52/49/49
f 4/2/2 64/60/60 60/56/56
f 10/8/8 16/14/14 14/12/12
f 36/34/34 28/26/26 20/18/18
f 127/59/59 62/58/58 128/62/62
f 10/8/8 20/18/18 16/14/14
f 20/18/18 10/8/8 36/34/34
f 54/50/50 36/34/34 60/56/56
f 36/34/34 4/2/2 60/56/56
f 21/63/63 49/181/88 57/185/91
f 61/187/93 63/64/64 59/186/92
f 53/183/89 55/184/90 57/185/91
f 49/181/88 51/189/95 53/183/89
f 63/64/64 1/188/94 3/160/68
f 63/64/64 57/185/91 59/186/92
f 41/177/84 43/178/85 39/176/83
f 33/173/81 35/190/96 37/175/82
f 29/171/79 31/172/80 33/173/81
f 25/169/77 27/170/78 29/171/79
f 21/63/63 23/168/76 25/169/77
f 17/166/74 19/167/75 21/63/63
f 17/166/74 21/63/63 15/165/73
f 9/163/71 11/164/72 13/65/65
f 13/65/65 5/161/69 9/163/71
f 129/68/3 66/67/3 130/70/5
f 3/160/68 5/161/69 63/64/64
f 49/181/88 53/183/89 57/185/91
f 47/180/87 49/181/88 21/63/63
f 5/161/69 7/162/70 9/163/71
f 33/173/81 47/180/87 29/171/79
f 5/161/69 13/65/65 63/64/64
f 43/178/85 37/175/82 39/176/83
f 37/175/82 43/178/85 47/180/87
f 21/63/63 13/65/65 15/165/73
f 33/173/81 37/175/82 47/180/87
f 29/171/79 47/180/87 25/169/77
f 43/178/85 45/179/86 47/180/87
f 63/64/64 21/63/63 57/185/91
f 25/169/77 47/180/87 21/63/63
f 160/126/61 65/66/61 129/68/3
f 130/70/5 67/69/5 131/72/7
f 131/72/7 68/71/7 132/74/9
f 132/74/9 69/73/9 133/76/11
f 133/76/11 70/75/11 134/78/13
f 134/78/13 71/77/13 135/80/15
f 135/80/15 72/79/15 136/82/17
f 136/82/17 73/81/17 137/84/19
f 137/84/19 74/83/19 138/86/21
f 138/86/21 75/85/21 139/88/23
f 139/88/23 76/87/23 140/90/25
f 140/90/25 77/89/25 141/92/27
f 141/92/27 78/91/27 142/94/29
f 142/94/29 79/93/29 143/96/31
f 143/96/31 80/95/31 144/98/33
f 145/174/66 144/98/33 82/99/66
f 145/174/66 82/99/66 146/101/36
f 146/101/36 83/100/36 147/103/38
f 147/103/38 84/102/38 148/105/40
f 148/105/40 85/104/40 149/107/42
f 149/107/42 86/106/42 150/109/44
f 150/109/44 87/108/44 151/111/46
f 151/111/46 88/110/46 152/113/48
f 153/182/67 152/113/48 90/114/67
f 153/182/67 90/114/67 154/116/51
f 154/116/51 91/115/51 155/118/53
f 155/118/53 92/117/53 156/120/55
f 156/120/55 93/119/55 157/122/57
f 157/122/57 94/121/57 158/124/59
f 159/127/62 96/125/62 160/126/61
f 158/124/59 95/123/59 159/127/62
f 65/158/61 97/61/61 66/128/3
f 66/128/3 98/3/3 67/129/5
f 67/129/5 99/5/5 68/130/7
f 68/130/7 100/7/7 69/131/9
f 69/131/9 101/9/9 70/132/11
f 70/132/11 102/11/11 71/133/13
f 71/133/13 103/13/13 72/134/15
f 72/134/15 104/15/15 73/135/17
f 73/135/17 105/17/17 74/136/19
f 74/136/19 106/19/19 75/137/21
f 75/137/21 107/21/21 76/138/23
f 76/138/23 108/23/23 77/139/25
f 77/139/25 109/25/25 78/140/27
f 78/140/27 110/27/27 79/141/29
f 79/141/29 111/29/29 80/142/31
f 80/142/31 112/31/31 81/143/33
f 82/191/66 81/143/33 114/144/66
f 82/191/66 114/144/66 83/145/36
f 83/145/36 115/36/36 84/146/38
f 84/146/38 116/38/38 85/147/40
f 85/147/40 117/40/40 86/148/42
f 86/148/42 118/42/42 87/149/44
f 87/149/44 119/44/44 88/150/46
f 88/150/46 120/46/46 89/151/48
f 90/192/67 89/151/48 122/152/67
f 90/192/67 122/152/67 91/153/51
f 91/153/51 123/51/51 92/154/53
f 92/154/53 124/53/53 93/155/55
f 93/155/55 125/55/55 94/156/57
f 94/156/57 126/57/57 95/157/59
f 96/159/62 128/62/62 65/158/61
f 95/157/59 127/59/59 96/159/62
f 1/188/94 160/126/61 3/160/68
f 3/160/68 129/68/3 5/161/69
f 5/161/69 130/70/5 7/162/70
f 7/162/70 131/72/7 9/163/71
f 9/163/71 132/74/9 11/164/72
f 11/164/72 133/76/11 13/65/65
f 13/65/65 134/78/13 15/165/73
f 15/165/73 135/80/15 17/166/74
f 17/166/74 136/82/17 19/167/75
f 19/167/75 137/84/19 21/63/63
f 21/63/63 138/86/21 23/168/76
f 23/168/76 139/88/23 25/169/77
f 25/169/77 140/90/25 27/170/78
f 27/170/78 141/92/27 29/171/79
f 29/171/79 142/94/29 31/172/80
f 31/172/80 143/96/31 33/173/81
f 35/190/96 33/173/81 145/174/66
f 35/190/96 145/174/66 37/175/82
f 37/175/82 146/101/36 39/176/83
f 39/176/83 147/103/38 41/177/84
f 41/177/84 148/105/40 43/178/85
f 43/178/85 149/107/42 45/179/86
f 45/179/86 150/109/44 47/180/87
f 47/180/87 151/111/46 49/181/88
f 51/189/95 49/181/88 153/182/67
f 51/189/95 153/182/67 53/183/89
f 53/183/89 154/116/51 55/184/90
f 55/184/90 155/118/53 57/185/91
f 57/185/91 156/120/55 59/186/92
f 59/186/92 157/122/57 61/187/93
f 63/64/64 159/127/62 1/188/94
f 61/187/93 158/124/59 63/64/64
